<svg width="54" height="42" viewBox="0 0 54 42" fill="none" xmlns="http://www.w3.org/2000/svg">
<path fill-rule="evenodd" clip-rule="evenodd" d="M38.8126 30.375C47.2004 30.375 54.0001 23.5753 54.0001 15.1875C54.0001 6.79967 47.2004 0 38.8126 0C32.1147 0 26.4295 4.33575 24.4105 10.3537C30.2516 12.4695 34.4251 18.0661 34.4251 24.6375C34.4251 26.3274 34.1491 27.9529 33.6397 29.4713C35.2542 30.0561 36.9962 30.375 38.8126 30.375Z" fill="#1AB9BF"/>
<circle cx="15.345" cy="26.505" r="15.345" fill="#FFE072"/>
<path d="M25.1406 21.846C24.9099 21.8359 24.6808 21.9026 24.4738 22.0402C24.2667 22.1778 24.0881 22.3819 23.9538 22.6346C23.9423 22.6566 23.926 22.6732 23.9072 22.6818C23.8883 22.6905 23.8679 22.6909 23.8489 22.6828C23.8298 22.6748 23.8132 22.6589 23.8014 22.6373C23.7896 22.6157 23.7832 22.5896 23.7831 22.5627V20.2505C23.7831 18.9414 23.0172 17.8399 22.045 17.809C21.8074 17.8009 21.5709 17.8569 21.3496 17.9737C21.1283 18.0905 20.9266 18.2658 20.7564 18.4891C20.5862 18.7125 20.451 18.9795 20.3586 19.2743C20.2663 19.5691 20.2187 19.8858 20.2188 20.2057V25.379C20.2188 25.4125 20.2089 25.4446 20.1913 25.4682C20.1737 25.4919 20.1499 25.5052 20.125 25.5052H10.375C10.3501 25.5052 10.3263 25.4919 10.3087 25.4682C10.2911 25.4446 10.2812 25.4125 10.2812 25.379V20.2505C10.2812 18.9414 9.51531 17.8399 8.54313 17.809C8.30564 17.8012 8.06941 17.8575 7.84833 17.9745C7.62725 18.0914 7.42578 18.2667 7.25579 18.4901C7.08579 18.7134 6.95071 18.9802 6.85848 19.2749C6.76625 19.5695 6.71874 19.886 6.71875 20.2057V22.564C6.7187 22.5908 6.71231 22.6169 6.70049 22.6385C6.68867 22.6601 6.67204 22.6761 6.65302 22.6841C6.634 22.6921 6.61358 22.6918 6.59471 22.6831C6.57585 22.6744 6.55953 22.6579 6.54813 22.6359C6.41368 22.3826 6.23481 22.178 6.02741 22.0401C5.82002 21.9023 5.59054 21.8357 5.35938 21.846C4.59531 21.8782 4 22.7488 4 23.7778V30.006C4 31.035 4.59719 31.9056 5.35938 31.9378C5.59014 31.9479 5.81919 31.8812 6.02623 31.7436C6.23326 31.606 6.41188 31.4019 6.54625 31.1491C6.55738 31.1259 6.57388 31.1082 6.59322 31.0988C6.61255 31.0894 6.63365 31.0888 6.65325 31.0971C6.67286 31.1054 6.68989 31.1222 6.70173 31.1448C6.71356 31.1675 6.71954 31.1947 6.71875 31.2223V33.5358C6.71875 34.8424 7.48469 35.9464 8.45687 35.978C8.6944 35.9857 8.93067 35.9294 9.15178 35.8124C9.37289 35.6954 9.57438 35.5201 9.74438 35.2967C9.91438 35.0733 10.0495 34.8064 10.1417 34.5117C10.2339 34.2169 10.2813 33.9004 10.2812 33.5806V28.4073C10.2812 28.3738 10.2911 28.3417 10.3087 28.3181C10.3263 28.2944 10.3501 28.2811 10.375 28.2811H20.125C20.1499 28.2811 20.1737 28.2944 20.1913 28.3181C20.2089 28.3417 20.2188 28.3738 20.2188 28.4073V33.5358C20.2188 34.8449 20.9847 35.9464 21.9569 35.9774C22.1944 35.9851 22.4306 35.9288 22.6517 35.8119C22.8728 35.6949 23.0742 35.5196 23.2442 35.2963C23.4142 35.0729 23.5493 34.8061 23.6415 34.5115C23.7337 34.2168 23.7813 33.9003 23.7812 33.5806V31.2223C23.7813 31.1955 23.7877 31.1694 23.7995 31.1478C23.8113 31.1262 23.828 31.1102 23.847 31.1022C23.866 31.0942 23.8864 31.0946 23.9053 31.1032C23.9241 31.1119 23.9405 31.1284 23.9519 31.1504C24.0863 31.4037 24.2652 31.6084 24.4726 31.7462C24.68 31.884 24.9095 31.9507 25.1406 31.9403C25.9047 31.9081 26.5 31.0375 26.5 30.0085V23.7791C26.5 22.7501 25.9028 21.8795 25.1406 21.846Z" fill="black"/>
</svg>
